<?xml version="1.0" encoding="utf-8"?>
<!DOCTYPE svg PUBLIC "-//W3C//DTD SVG 1.1//EN" "http://www.w3.org/Graphics/SVG/1.1/DTD/svg11.dtd">

<svg version="1.1" xmlns:dc="http://purl.org/dc/elements/1.1/" xmlns:cc="http://creativecommons.org/ns#" xmlns:rdf="http://www.w3.org/1999/02/22-rdf-syntax-ns#" xmlns:svg="http://www.w3.org/2000/svg"
	 xmlns="http://www.w3.org/2000/svg" xmlns:xlink="http://www.w3.org/1999/xlink" x="0px" y="0px" width="684px" height="250px"
	 viewBox="44 53 580 200" xml:space="preserve">

<!-- Key shapes -->
<g id="Layer_1">

    <!-- Numbers row -->
	<path id="key-tilde"     class="key numrow number"  d="M46.942,96.62h19.975c0.999,0,2.996,0.999,2.996,2.996v16.979c0,1.998-1.997,2.997-2.996,2.997H46.942c-1.998,0-2.997-0.999-2.997-2.997V99.616C43.945,97.619,44.944,96.62,46.942,96.62z"/>
	<path id="key-1"         class="key numrow number"  d="M76.904,96.62h19.976c1.997,0,2.996,0.999,2.996,2.996v16.979c0,1.998-0.999,2.997-2.996,2.997H76.904c-1.997,0-2.996-0.999-2.996-2.997V99.616C73.907,97.619,74.906,96.62,76.904,96.62z"/>
	<path id="key-2"         class="key numrow number"  d="M105.867,96.62h19.975c1.998,0,2.997,0.999,2.997,2.996v16.979c0,1.998-0.999,2.997-2.997,2.997h-19.975c-0.999,0-1.997-0.999-1.997-2.997V99.616C103.87,97.619,104.868,96.62,105.867,96.62z"/>
	<path id="key-3"         class="key numrow number"  d="M135.83,96.62h19.975c1.997,0,2.996,0.999,2.996,2.996v16.979c0,1.998-0.999,2.997-2.996,2.997H135.83c-1.998,0-2.997-0.999-2.997-2.997V99.616C132.833,97.619,133.832,96.62,135.83,96.62z"/>
	<path id="key-4"         class="key numrow number"  d="M165.792,96.62h19.976c1.997,0,2.996,0.999,2.996,2.996v16.979c0,1.998-0.999,2.997-2.996,2.997h-19.976c-0.998,0-2.996-0.999-2.996-2.997V99.616C162.796,97.619,164.794,96.62,165.792,96.62z"/>
	<path id="key-5"         class="key numrow number"  d="M195.755,96.62h18.977c1.997,0,2.996,0.999,2.996,2.996v16.979c0,1.998-0.999,2.997-2.996,2.997h-18.977c-0.999,0-2.996-0.999-2.996-2.997V99.616C192.759,97.619,194.756,96.62,195.755,96.62z"/>
	<path id="key-6"         class="key numrow number"  d="M224.719,96.62h19.975c1.998,0,2.996,0.999,2.996,2.996v16.979c0,1.998-0.998,2.997-2.996,2.997h-19.975c-0.999,0-2.996-0.999-2.996-2.997V99.616C221.723,97.619,223.72,96.62,224.719,96.62z"/>
	<path id="key-7"         class="key numrow number"  d="M254.681,96.62h19.976c1.997,0,2.996,0.999,2.996,2.996v16.979c0,1.998-0.999,2.997-2.996,2.997h-19.976c-0.998,0-2.996-0.999-2.996-2.997V99.616C251.685,97.619,253.683,96.62,254.681,96.62z"/>
	<path id="key-8"         class="key numrow number"  d="M284.644,96.62h18.976c1.998,0,2.997,0.999,2.997,2.996v16.979c0,1.998-0.999,2.997-2.997,2.997h-18.976c-0.999,0-2.996-0.999-2.996-2.997V99.616C281.648,97.619,283.645,96.62,284.644,96.62z"/>
	<path id="key-9"         class="key numrow number"  d="M313.608,96.62h19.975c1.997,0,2.996,0.999,2.996,2.996v16.979c0,1.998-0.999,2.997-2.996,2.997h-19.975c-0.999,0-2.997-0.999-2.997-2.997V99.616C310.611,97.619,312.609,96.62,313.608,96.62z"/>
	<path id="key-0"         class="key numrow number"  d="M343.57,96.62h19.976c1.997,0,2.996,0.999,2.996,2.996v16.979c0,1.998-0.999,2.997-2.996,2.997H343.57c-0.999,0-2.996-0.999-2.996-2.997V99.616C340.573,97.619,342.571,96.62,343.57,96.62z"/>
	<path id="key-minus"     class="key numrow"         d="M373.532,96.62h19.975c0.999,0,1.998,0.999,1.998,2.996v16.979c0,1.998-0.999,2.997-1.998,2.997h-19.975c-0.999,0-2.996-0.999-2.996-2.997V99.616C370.536,97.619,372.533,96.62,373.532,96.62z"/>
	<path id="key-equals"    class="key numrow"         d="M402.496,96.62h19.975c1.998,0,2.996,0.999,2.996,2.996v16.979c0,1.998-0.998,2.997-2.996,2.997h-19.975c-0.999,0-1.998-0.999-1.998-2.997V99.616C400.498,97.619,401.497,96.62,402.496,96.62z"/>
	<path id="key-backslash" class="key numrow"         d="M432.458,96.62h19.976c1.997,0,2.996,0.999,2.996,2.996v16.979c0,1.998-0.999,2.997-2.996,2.997h-19.976c-0.998,0-1.997-0.999-1.997-2.997V99.616C430.461,97.619,431.46,96.62,432.458,96.62z"/>
	<path id="key-backspace" class="key numrow special" d="M462.421,96.62h19.975c1.998,0,2.996,0.999,2.996,2.996v16.979c0,1.998-0.998,2.997-2.996,2.997h-19.975c-0.999,0-1.998-0.999-1.998-2.997V99.616C460.423,97.619,461.422,96.62,462.421,96.62z"/>

    <!-- Top letter row -->
	<path id="key-Q"         class="key letter top-row" d="M94.881,121.589h18.977c1.997,0,2.996,0.999,2.996,2.996v17.978c0,0.999-0.999,2.996-2.996,2.996H94.881c-0.999,0-2.996-1.998-2.996-2.996v-17.978C91.885,122.587,93.882,121.589,94.881,121.589z"/>
	<path id="key-W"         class="key letter top-row" d="M123.845,121.589h19.975c1.998,0,2.997,0.999,2.997,2.996v17.978c0,0.999-0.999,2.996-2.997,2.996h-19.975c-0.999,0-2.996-1.998-2.996-2.996v-17.978C120.849,122.587,122.846,121.589,123.845,121.589z"/>
	<path id="key-E"         class="key letter top-row" d="M153.808,121.589h19.975c1.997,0,2.996,0.999,2.996,2.996v17.978c0,0.999-0.999,2.996-2.996,2.996h-19.975c-0.999,0-2.997-1.998-2.997-2.996v-17.978C150.811,122.587,152.809,121.589,153.808,121.589z"/>
	<path id="key-R"         class="key letter top-row" d="M183.77,121.589h18.977c1.997,0,2.996,0.999,2.996,2.996v17.978c0,0.999-0.999,2.996-2.996,2.996H183.77c-0.999,0-2.996-1.998-2.996-2.996v-17.978C180.774,122.587,182.771,121.589,183.77,121.589z"/>
	<path id="key-T"         class="key letter top-row" d="M212.734,121.589h19.975c1.998,0,2.997,0.999,2.997,2.996v17.978c0,0.999-0.999,2.996-2.997,2.996h-19.975c-0.999,0-1.997-1.998-1.997-2.996v-17.978C210.737,122.587,211.735,121.589,212.734,121.589z"/>
	<path id="key-Y"         class="key letter top-row" d="M242.697,121.589h19.975c1.998,0,2.996,0.999,2.996,2.996v17.978c0,0.999-0.998,2.996-2.996,2.996h-19.975c-0.999,0-1.998-1.998-1.998-2.996v-17.978C240.698,122.587,241.698,121.589,242.697,121.589z"/>
	<path id="key-U"         class="key letter top-row" d="M272.658,121.589h19.976c1.997,0,2.996,0.999,2.996,2.996v17.978c0,0.999-0.999,2.996-2.996,2.996h-19.976c-0.998,0-1.997-1.998-1.997-2.996v-17.978C270.661,122.587,271.66,121.589,272.658,121.589z"/>
	<path id="key-I"         class="key letter top-row" d="M301.622,121.589h19.975c1.998,0,2.997,0.999,2.997,2.996v17.978c0,0.999-0.999,2.996-2.997,2.996h-19.975c-0.999,0-1.997-1.998-1.997-2.996v-17.978C299.625,122.587,300.623,121.589,301.622,121.589z"/>
	<path id="key-O"         class="key letter top-row" d="M331.585,121.589h19.975c1.997,0,2.996,0.999,2.996,2.996v17.978c0,0.999-0.999,2.996-2.996,2.996h-19.975c-0.999,0-1.998-1.998-1.998-2.996v-17.978C329.587,122.587,330.586,121.589,331.585,121.589z"/>
	<path id="key-P"         class="key letter top-row" d="M361.547,121.589h19.976c1.997,0,2.996,0.999,2.996,2.996v17.978c0,0.999-0.999,2.996-2.996,2.996h-19.976c-0.999,0-1.997-1.998-1.997-2.996v-17.978C359.55,122.587,360.548,121.589,361.547,121.589z"/>
	<path id="key-lbrack"    class="key first-row" d="M391.51,121.589h18.976c1.998,0,2.997,0.999,2.997,2.996v17.978c0,0.999-0.999,2.996-2.997,2.996H391.51c-0.999,0-1.998-1.998-1.998-2.996v-17.978C389.512,122.587,390.511,121.589,391.51,121.589z"/>
	<path id="key-rbrack"    class="key first-row" d="M420.474,121.589h19.975c1.997,0,2.996,0.999,2.996,2.996v17.978c0,0.999-0.999,2.996-2.996,2.996h-19.975c-0.999,0-1.998-1.998-1.998-2.996v-17.978C418.476,122.587,419.475,121.589,420.474,121.589z"/>

    <!-- Home row -->
    <path id="key-A"  class="key letter home-row" d="M102.871,147.556h18.977c0.998,0,2.996,0.999,2.996,1.998v18.976c0,0.999-1.998,1.998-2.996,1.998h-18.977c-1.998,0-2.996-0.999-2.996-1.998v-18.976C99.875,148.555,100.873,147.556,102.871,147.556z"/>
	<path id="key-S"  class="key letter home-row" d="M131.835,147.556h19.975c0.999,0,2.996,0.999,2.996,1.998v18.976c0,0.999-1.997,1.998-2.996,1.998h-19.975c-1.998,0-2.996-0.999-2.996-1.998v-18.976C128.839,148.555,129.837,147.556,131.835,147.556z"/>
	<path id="key-D"  class="key letter home-row" d="M161.797,147.556h19.976c1.997,0,2.996,0.999,2.996,1.998v18.976c0,0.999-0.999,1.998-2.996,1.998h-19.976c-1.997,0-2.996-0.999-2.996-1.998v-18.976C158.801,148.555,159.8,147.556,161.797,147.556z"/>
	<path id="key-F"  class="key letter home-row" d="M191.76,147.556h18.977c1.997,0,2.996,0.999,2.996,1.998v18.976c0,0.999-0.999,1.998-2.996,1.998H191.76c-1.997,0-2.996-0.999-2.996-1.998v-18.976C188.764,148.555,189.763,147.556,191.76,147.556z"/>
	<path id="key-G"  class="key letter home-row" d="M220.724,147.556h19.975c1.998,0,2.996,0.999,2.996,1.998v18.976c0,0.999-0.998,1.998-2.996,1.998h-19.975c-1.998,0-2.996-0.999-2.996-1.998v-18.976C217.728,148.555,218.726,147.556,220.724,147.556z"/>
	<path id="key-H"  class="key letter home-row" d="M250.686,147.556h19.976c1.997,0,2.996,0.999,2.996,1.998v18.976c0,0.999-0.999,1.998-2.996,1.998h-19.976c-0.998,0-2.996-0.999-2.996-1.998v-18.976C247.69,148.555,249.688,147.556,250.686,147.556z"/>
	<path id="key-J"  class="key letter home-row" d="M280.649,147.556h18.977c1.997,0,2.996,0.999,2.996,1.998v18.976c0,0.999-0.999,1.998-2.996,1.998h-18.977c-0.999,0-2.996-0.999-2.996-1.998v-18.976C277.653,148.555,279.65,147.556,280.649,147.556z"/>
	<path id="key-K"  class="key letter home-row" d="M309.613,147.556h19.975c1.998,0,2.996,0.999,2.996,1.998v18.976c0,0.999-0.998,1.998-2.996,1.998h-19.975c-0.999,0-2.996-0.999-2.996-1.998v-18.976C306.616,148.555,308.614,147.556,309.613,147.556z"/>
	<path id="key-L"  class="key letter home-row" d="M339.574,147.556h19.976c1.997,0,2.996,0.999,2.996,1.998v18.976c0,0.999-0.999,1.998-2.996,1.998h-19.976c-0.998,0-2.996-0.999-2.996-1.998v-18.976C336.578,148.555,338.576,147.556,339.574,147.556z"/>
	<path id="key-semicolon" class="key home-row" d="M369.537,147.556h19.975c1.998,0,2.996,0.999,2.996,1.998v18.976c0,0.999-0.998,1.998-2.996,1.998h-19.975c-0.999,0-2.996-0.999-2.996-1.998v-18.976C366.541,148.555,368.538,147.556,369.537,147.556z"/>
	<path id="key-apos"      class="key home-row" d="M398.501,147.556h19.975c1.998,0,2.996,0.999,2.996,1.998v18.976c0,0.999-0.998,1.998-2.996,1.998h-19.975c-0.999,0-2.996-0.999-2.996-1.998v-18.976C395.505,148.555,397.502,147.556,398.501,147.556z"/>

    <!-- Bottom row -->
    <path id="key-Z"  class="key letter bot-row" d="M112.859,172.525h20.974c0.999,0,1.998,1.998,1.998,2.997V192.5c0,1.998-0.999,2.996-1.998,2.996h-20.974c-0.999,0-1.997-0.998-1.997-2.996v-16.979C110.862,174.522,111.86,172.525,112.859,172.525z"/>
	<path id="key-X"  class="key letter bot-row" d="M142.822,172.525h20.974c0.999,0,1.997,1.998,1.997,2.997V192.5c0,1.998-0.998,2.996-1.997,2.996h-20.974c-0.999,0-1.998-0.998-1.998-2.996v-16.979C140.823,174.522,141.823,172.525,142.822,172.525z"/>
	<path id="key-C"  class="key letter bot-row" d="M172.783,172.525h20.974c0.999,0,1.998,1.998,1.998,2.997V192.5c0,1.998-0.999,2.996-1.998,2.996h-20.974c-0.998,0-1.997-0.998-1.997-2.996v-16.979C170.786,174.522,171.785,172.525,172.783,172.525z"/>
    <path id="key-V"  class="key letter bot-row" d="M201.747,172.525h20.974c0.999,0,1.998,1.998,1.998,2.997V192.5c0,1.998-0.999,2.996-1.998,2.996h-20.974c0,0-0.999-0.998-0.999-2.996v-16.979C200.748,174.522,201.747,172.525,201.747,172.525z"/>
	<path id="key-B"  class="key letter bot-row" d="M232.708,172.525h19.976c0.999,0,1.997,1.998,1.997,2.997V192.5c0,1.998-0.998,2.996-1.997,2.996h-19.976c-1.997,0-2.996-0.998-2.996-2.996v-16.979C229.712,174.522,230.711,172.525,232.708,172.525z"/>
	<path id="key-N"  class="key letter bot-row" d="M262.671,172.525h19.975c0.999,0,1.998,1.998,1.998,2.997V192.5c0,1.998-0.999,2.996-1.998,2.996h-19.975c-1.997,0-2.996-0.998-2.996-2.996v-16.979C259.675,174.522,260.674,172.525,262.671,172.525z"/>
	<path id="key-M"  class="key letter bot-row" d="M292.634,172.525h18.976c0.999,0,1.998,1.998,1.998,2.997V192.5c0,1.998-0.999,2.996-1.998,2.996h-18.976c-1.998,0-2.996-0.998-2.996-2.996v-16.979C289.638,174.522,290.636,172.525,292.634,172.525z"/>
	<path id="key-comma"  class="key bot-row" d="M321.597,172.525h19.976c0.998,0,1.997,1.998,1.997,2.997V192.5c0,1.998-0.999,2.996-1.997,2.996h-19.976c-1.997,0-2.996-0.998-2.996-2.996v-16.979C318.601,174.522,319.6,172.525,321.597,172.525z"/>
	<path id="key-dot"    class="key bot-row" d="M351.56,172.525h19.975c0.999,0,1.998,1.998,1.998,2.997V192.5c0,1.998-0.999,2.996-1.998,2.996H351.56c-1.997,0-2.996-0.998-2.996-2.996v-16.979C348.564,174.522,349.563,172.525,351.56,172.525z"/>
	<path id="key-slash"  class="key bot-row" d="M381.523,172.525h18.976c0.999,0,1.998,1.998,1.998,2.997V192.5c0,1.998-0.999,2.996-1.998,2.996h-18.976c-1.998,0-2.997-0.998-2.997-2.996v-16.979C378.526,174.522,379.525,172.525,381.523,172.525z"/>

    <!-- F-row -->
    <path id="key-Esc" class="key f-row" d="M46.942,55.671h19.975c0.999,0,2.996,0.999,2.996,2.996v17.978c0,0.999-1.997,2.996-2.996,2.996H46.942c-1.998,0-2.997-1.998-2.997-2.996V58.667C43.945,56.67,44.944,55.671,46.942,55.671z"/>
	<path id="key-F1"  class="key f-row" d="M105.867,55.671h19.975c1.998,0,2.997,0.999,2.997,2.996v17.978c0,0.999-0.999,2.996-2.997,2.996h-19.975c-0.999,0-1.997-1.998-1.997-2.996V58.667C103.87,56.67,104.868,55.671,105.867,55.671z"/>
	<path id="key-F2"  class="key f-row" d="M135.83,55.671h19.975c1.997,0,2.996,0.999,2.996,2.996v17.978c0,0.999-0.999,2.996-2.996,2.996H135.83c-1.998,0-2.997-1.998-2.997-2.996V58.667C132.833,56.67,133.832,55.671,135.83,55.671z"/>
	<path id="key-F3"  class="key f-row" d="M165.792,55.671h19.976c1.997,0,2.996,0.999,2.996,2.996v17.978c0,0.999-0.999,2.996-2.996,2.996h-19.976c-0.998,0-2.996-1.998-2.996-2.996V58.667C162.796,56.67,164.794,55.671,165.792,55.671z"/>
	<path id="key-F4"  class="key f-row" d="M195.755,55.671h18.977c1.997,0,2.996,0.999,2.996,2.996v17.978c0,0.999-0.999,2.996-2.996,2.996h-18.977c-0.999,0-2.996-1.998-2.996-2.996V58.667C192.759,56.67,194.756,55.671,195.755,55.671z"/>
	<path id="key-F5"  class="key f-row" d="M239.7,54.672h19.975c0.999,0,1.997,1.998,1.997,2.997v17.978c0,1.997-0.998,2.996-1.997,2.996H239.7c-1.998,0-2.997-0.999-2.997-2.996V57.669C236.703,56.67,237.702,54.672,239.7,54.672z"/>
	<path id="key-F6"  class="key f-row" d="M269.662,54.672h19.976c0.998,0,1.997,1.998,1.997,2.997v17.978c0,1.997-0.999,2.996-1.997,2.996h-19.976c-1.997,0-2.996-0.999-2.996-2.996V57.669C266.666,56.67,267.665,54.672,269.662,54.672z"/>
	<path id="key-F7"  class="key f-row" d="M298.626,54.672h19.975c0.999,0,1.998,1.998,1.998,2.997v17.978c0,1.997-0.999,2.996-1.998,2.996h-19.975c-0.999,0-1.997-0.999-1.997-2.996V57.669C296.629,56.67,297.627,54.672,298.626,54.672z"/>
	<path id="key-F8"  class="key f-row" d="M328.588,54.672h19.976c0.999,0,1.997,1.998,1.997,2.997v17.978c0,1.997-0.998,2.996-1.997,2.996h-19.976c-1.997,0-2.996-0.999-2.996-2.996V57.669C325.592,56.67,326.591,54.672,328.588,54.672z"/>
	<path id="key-F9"  class="key f-row" d="M372.533,54.672h19.975c0.999,0,1.998,1.998,1.998,2.997v17.978c0,1.997-0.999,2.996-1.998,2.996h-19.975c-1.997,0-2.996-0.999-2.996-2.996V57.669C369.537,56.67,370.536,54.672,372.533,54.672z"/>
	<path id="key-F10" class="key f-row" d="M401.497,54.672h19.975c0.999,0,1.998,1.998,1.998,2.997v17.978c0,1.997-0.999,2.996-1.998,2.996h-19.975c-1.997,0-2.996-0.999-2.996-2.996V57.669C398.501,56.67,399.5,54.672,401.497,54.672z"/>
	<path id="key-F11" class="key f-row" d="M431.46,54.672h19.975c0.999,0,1.997,1.998,1.997,2.997v17.978c0,1.997-0.998,2.996-1.997,2.996H431.46c-1.998,0-2.997-0.999-2.997-2.996V57.669C428.463,56.67,429.462,54.672,431.46,54.672z"/>
	<path id="key-F12" class="key f-row" d="M461.422,54.672h19.976c0.998,0,1.997,1.998,1.997,2.997v17.978c0,1.997-0.999,2.996-1.997,2.996h-19.976c-1.997,0-2.996-0.999-2.996-2.996V57.669C458.426,56.67,459.425,54.672,461.422,54.672z"/>

    <!-- Ins/Home/etc -->
    <path id="key-Insert"      class="key center-thing" d="M520.349,96.62h19.975c0.999,0,1.997,0.999,1.997,1.998v17.977c0,0.999-0.998,1.998-1.997,1.998h-19.975c-1.998,0-2.997-0.999-2.997-1.998V98.618C517.352,97.619,518.351,96.62,520.349,96.62z"/>
	<path id="key-Home"        class="key center-thing" d="M550.311,96.62h19.976c0.998,0,1.997,0.999,1.997,1.998v17.977c0,0.999-0.999,1.998-1.997,1.998h-19.976c-1.997,0-2.996-0.999-2.996-1.998V98.618C547.315,97.619,548.314,96.62,550.311,96.62z"/>
	<path id="key-PageUp"      class="key center-thing" d="M580.274,96.62h18.977c0.998,0,1.997,0.999,1.997,1.998v17.977c0,0.999-0.999,1.998-1.997,1.998h-18.977c-1.998,0-2.996-0.999-2.996-1.998V98.618C577.278,97.619,578.276,96.62,580.274,96.62z"/>
	<path id="key-PrintScreen" class="key center-thing" d="M518.351,54.672h19.976c1.997,0,2.996,1.998,2.996,2.997v17.978c0,1.997-0.999,2.996-2.996,2.996h-19.976c-0.999,0-2.996-0.999-2.996-2.996V57.669C515.355,56.67,517.352,54.672,518.351,54.672z"/>
	<path id="key-ScrollLock"  class="key center-thing" d="M548.314,54.672h19.975c1.998,0,2.996,1.998,2.996,2.997v17.978c0,1.997-0.998,2.996-2.996,2.996h-19.975c-0.999,0-2.996-0.999-2.996-2.996V57.669C545.318,56.67,547.315,54.672,548.314,54.672z"/>
	<path id="key-Pause"       class="key center-thing" d="M578.276,54.672h18.977c1.998,0,2.996,1.998,2.996,2.997v17.978c0,1.997-0.998,2.996-2.996,2.996h-18.977c-0.998,0-2.996-0.999-2.996-2.996V57.669C575.28,56.67,577.278,54.672,578.276,54.672z"/>
	<path id="key-Delete"      class="key center-thing" d="M520.349,120.59h19.975c0.999,0,1.997,1.998,1.997,2.997v17.977c0,1.998-0.998,2.997-1.997,2.997h-19.975c-1.998,0-2.997-0.999-2.997-2.997v-17.977C517.352,122.587,518.351,120.59,520.349,120.59z"/>
	<path id="key-End"         class="key center-thing" d="M550.311,120.59h19.976c0.998,0,1.997,1.998,1.997,2.997v17.977c0,1.998-0.999,2.997-1.997,2.997h-19.976c-1.997,0-2.996-0.999-2.996-2.997v-17.977C547.315,122.587,548.314,120.59,550.311,120.59z"/>
	<path id="key-PageDown"    class="key center-thing" d="M580.274,120.59h18.977c0.998,0,1.997,1.998,1.997,2.997v17.977c0,1.998-0.999,2.997-1.997,2.997h-18.977c-1.998,0-2.996-0.999-2.996-2.997v-17.977C577.278,122.587,578.276,120.59,580.274,120.59z"/>

    <!-- Arrow keys -->
    <path id="key-arrow-left"  class="key arrow" d="M520.349,197.494h19.975c0.999,0,1.997,0.998,1.997,1.997v18.976c0,1-0.998,1.998-1.997,1.998h-19.975c-1.998,0-2.997-0.998-2.997-1.998v-18.976C517.352,198.492,518.351,197.494,520.349,197.494z"/>
	<path id="key-arrow-down"  class="key arrow" d="M550.311,197.494h19.976c0.998,0,1.997,0.998,1.997,1.997v18.976c0,1-0.999,1.998-1.997,1.998h-19.976c-1.997,0-2.996-0.998-2.996-1.998v-18.976C547.315,198.492,548.314,197.494,550.311,197.494z"/>
	<path id="key-arrow-right" class="key arrow" d="M580.274,197.494h18.977c0.998,0,1.997,0.998,1.997,1.997v18.976c0,1-0.999,1.998-1.997,1.998h-18.977c-1.998,0-2.996-0.998-2.996-1.998v-18.976C577.278,198.492,578.276,197.494,580.274,197.494z"/>
	<path id="key-arrow-up"    class="key arrow" d="M550.311,172.525h19.976c0.998,0,1.997,0.999,1.997,2.997V192.5c0,0.998-0.999,2.996-1.997,2.996h-19.976c-1.997,0-2.996-1.998-2.996-2.996v-16.979C547.315,173.524,548.314,172.525,550.311,172.525z"/>

    <!-- Keypad -->
    <path id="key-NumLock"         class="key keypad" d="M637.202,96.62h19.975c1.998,0,2.996,0.999,2.996,1.998v17.977c0,0.999-0.998,1.998-2.996,1.998h-19.975c-0.999,0-2.996-0.999-2.996-1.998V98.618C634.206,97.619,636.203,96.62,637.202,96.62z"/>
	<path id="key-keypad-7"        class="key keypad number" d="M637.202,120.59h19.975c1.998,0,2.996,1.998,2.996,2.997v17.977c0,1.998-0.998,2.997-2.996,2.997h-19.975c-0.999,0-2.996-0.999-2.996-2.997v-17.977C634.206,122.587,636.203,120.59,637.202,120.59z"/>
	<path id="key-keypad-8"        class="key keypad number" d="M667.164,120.59h18.977c1.998,0,2.996,1.998,2.996,2.997v17.977c0,1.998-0.998,2.997-2.996,2.997h-18.977c-0.998,0-2.996-0.999-2.996-2.997v-17.977C664.168,122.587,666.166,120.59,667.164,120.59z"/>
	<path id="key-keypad-9"        class="key keypad number" d="M696.128,120.59h19.976c1.997,0,2.996,1.998,2.996,2.997v17.977c0,1.998-0.999,2.997-2.996,2.997h-19.976c-0.998,0-2.996-0.999-2.996-2.997v-17.977C693.132,122.587,695.13,120.59,696.128,120.59z"/>
	<path id="key-keypad-4"        class="key keypad number" d="M637.202,146.558h19.975c1.998,0,2.996,0.999,2.996,2.996v17.978c0,1.998-0.998,2.996-2.996,2.996h-19.975c-0.999,0-2.996-0.999-2.996-2.996v-17.978C634.206,147.556,636.203,146.558,637.202,146.558z"/>
	<path id="key-keypad-5"        class="key keypad number" d="M667.164,146.558h18.977c1.998,0,2.996,0.999,2.996,2.996v17.978c0,1.998-0.998,2.996-2.996,2.996h-18.977c-0.998,0-2.996-0.999-2.996-2.996v-17.978C664.168,147.556,666.166,146.558,667.164,146.558z"/>
	<path id="key-keypad-6"        class="key keypad number" d="M696.128,146.558h19.976c1.997,0,2.996,0.999,2.996,2.996v17.978c0,1.998-0.999,2.996-2.996,2.996h-19.976c-0.998,0-2.996-0.999-2.996-2.996v-17.978C693.132,147.556,695.13,146.558,696.128,146.558z"/>
	<path id="key-keypad-1"        class="key keypad number" d="M637.202,172.525h19.975c1.998,0,2.996,0.999,2.996,2.997V192.5c0,0.998-0.998,2.996-2.996,2.996h-19.975c-0.999,0-2.996-1.998-2.996-2.996v-16.979C634.206,173.524,636.203,172.525,637.202,172.525z"/>
	<path id="key-keypad-2"        class="key keypad number" d="M667.164,172.525h18.977c1.998,0,2.996,0.999,2.996,2.997V192.5c0,0.998-0.998,2.996-2.996,2.996h-18.977c-0.998,0-2.996-1.998-2.996-2.996v-16.979C664.168,173.524,666.166,172.525,667.164,172.525z"/>
	<path id="key-keypad-3"        class="key keypad number" d="M696.128,172.525h19.976c1.997,0,2.996,0.999,2.996,2.997V192.5c0,0.998-0.999,2.996-2.996,2.996h-19.976c-0.998,0-2.996-1.998-2.996-2.996v-16.979C693.132,173.524,695.13,172.525,696.128,172.525z"/>
    <path id="key-keypad-0"        class="key keypad number" d="M637.202,220.466c-0.999,0-2.996-0.998-2.996-1.998v-18.976c0-0.999,1.997-1.997,2.996-1.997h48.938c1.998,0,2.996,0.998,2.996,1.997v18.976c0,1-0.998,1.998-2.996,1.998H637.202z"/>
	<path id="key-keypad-comma"    class="key keypad" d="M696.128,197.494h19.976c1.997,0,2.996,0.998,2.996,1.997v18.976c0,1-0.999,1.998-2.996,1.998h-19.976c-0.998,0-2.996-0.998-2.996-1.998v-18.976C693.132,198.492,695.13,197.494,696.128,197.494z"/>
	<path id="key-keypad-minus"    class="key keypad" d="M726.091,96.62h19.975c1.998,0,2.997,0.999,2.997,1.998v17.977c0,0.999-0.999,1.998-2.997,1.998h-19.975c-0.999,0-2.996-0.999-2.996-1.998V98.618C723.095,97.619,725.092,96.62,726.091,96.62z"/>
    <path id="key-keypad-plus"     class="key keypad" d="M749.063,123.586c0-0.999-0.999-2.997-2.997-2.997h-19.975c-0.999,0-2.996,1.998-2.996,2.997v43.945c0,1.998,1.997,2.996,2.996,2.996h19.975c1.998,0,2.997-0.999,2.997-2.996V123.586z"/>
    <path id="key-keypad-enter"    class="key keypad" d="M749.063,175.521c0-1.998-0.999-2.997-2.997-2.997h-19.975c-0.999,0-2.996,0.999-2.996,2.997v42.945c0,1,1.997,1.998,2.996,1.998h19.975c1.998,0,2.997-0.998,2.997-1.998V175.521z"/>
    <path id="key-keypad-slash"    class="key keypad" d="M667.164,96.62h18.977c1.998,0,2.996,0.999,2.996,1.998v17.977c0,0.999-0.998,1.998-2.996,1.998h-18.977c-0.998,0-2.996-0.999-2.996-1.998V98.618C664.168,97.619,666.166,96.62,667.164,96.62z"/>
    <path id="key-keypad-asterisk" class="key keypad" d="M696.128,96.62h19.976c1.997,0,2.996,0.999,2.996,1.998v17.977c0,0.999-0.999,1.998-2.996,1.998h-19.976c-0.998,0-2.996-0.999-2.996-1.998V98.618C693.132,97.619,695.13,96.62,696.128,96.62z"/>

    <!-- Specials -->
    <path id="key-spacebar" class="key spacebar special" d="M161.797,197.494h-10.986c-1.997,0-2.996,0.998-2.996,2.996v17.977c0,1.998,0.999,2.997,2.996,2.997h10.986h167.79h17.978c0,0,0.999-0.999,0.999-2.997V200.49c0-1.998-0.999-2.996-0.999-2.996h-17.978H161.797z"/>
	<path id="key-empty1"   class="key empty" d="M390.511,197.494h18.977c0.998,0,1.997,0.998,1.997,2.996v17.977c0,1.998-0.999,2.997-1.997,2.997h-18.977c-1.997,0-2.996-0.999-2.996-2.997V200.49C387.515,198.492,388.514,197.494,390.511,197.494z"/>
	<path id="key-empty2"   class="key empty" d="M419.475,197.494h19.975c0.999,0,1.998,0.998,1.998,2.996v17.977c0,1.998-0.999,2.997-1.998,2.997h-19.975c-1.998,0-2.996-0.999-2.996-2.997V200.49C416.479,198.492,417.477,197.494,419.475,197.494z"/>
    <path id="key-empty3"   class="key empty" d="M86.891,197.495h18.977c1.998,0,2.996,0.998,2.996,2.996v17.977c0,1-0.998,2.997-2.996,2.997H86.891c-0.998,0-2.996-1.997-2.996-2.997v-17.977C83.895,198.493,85.893,197.495,86.891,197.495z"/>
	<path id="key-Tab"      class="key special" d="M46.942,145.559c-1.998,0-2.997-1.998-2.997-2.996v-17.978c0-1.998,0.999-2.996,2.997-2.996h37.952c1.997,0,2.996,0.999,2.996,2.996v17.978c0,0.999-0.999,2.996-2.996,2.996H46.942z"/>
	<path id="key-CapsLock" class="key special" d="M46.942,170.527c-0.999,0-2.997-0.999-2.997-1.998v-18.976c0-0.999,1.998-1.998,2.997-1.998h44.943c1.997,0,3.995,0.999,3.995,1.998v18.976c0,0.999-1.998,1.998-3.995,1.998H46.942z"/>

	<path id="key-RShift"   class="key special" d="M409.488,195.497c-0.999,0-1.998-0.998-1.998-2.996v-16.979c0-0.999,0.999-2.997,1.998-2.997h72.908c1.998,0,2.996,1.998,2.996,2.997v16.979c0,1.998-0.998,2.996-2.996,2.996H409.488z"/>
	<path id="key-Return"   class="key special" d="M445.443,147.557h-16.979c-1.997,0-2.996,0.999-2.996,1.998v18.976c0,0.999,0.999,1.998,2.996,1.998h53.933c1.998,0,2.996-0.999,2.996-1.998v-43.945c0-1.998-0.998-2.996-2.996-2.996h-30.961c-1.997,0-2.996,0.999-2.996,2.996v19.975C448.439,146.559,448.439,147.557,445.443,147.557L445.443,147.557z"/>

	<path id="key-RCtrl"    class="key modifier special" d="M449.438,197.495h32.958c1.998,0,2.996,0.998,2.996,2.996v17.977c0,1.998-0.998,2.997-2.996,2.997h-32.958c-1.998,0-2.997-0.999-2.997-2.997v-17.977C446.441,198.493,447.44,197.495,449.438,197.495z"/>
	<path id="key-Shift"    class="key modifier special" d="M46.942,195.497c-0.999,0-2.997-0.998-2.997-2.996c0-4.994,0-10.986,0-16.979c0-0.999,1.998-2.997,2.997-2.997c14.98,0,40.948,0,56.929,0c0.998,0,1.997,1.998,1.997,2.997c0,5.992,0,11.985,0,16.979c0,1.998-0.999,2.996-1.997,2.996C87.89,195.497,61.922,195.497,46.942,195.497z"/>
	<path id="key-Ctrl"     class="key modifier special" d="M46.942,197.495h29.962c0.999,0,1.998,0.998,1.998,2.996v17.977c0,1.998-0.999,2.997-1.998,2.997H46.942c-1.998,0-2.997-0.999-2.997-2.997v-17.977C43.945,198.493,44.944,197.495,46.942,197.495z"/>
	<path id="key-Alt"      class="key modifier special" d="M115.855,197.495h24.969c0.999,0,1.998,0.998,1.998,2.996v17.977c0,1-0.999,2.997-1.998,2.997h-24.969c-0.998,0-1.997-1.997-1.997-2.997v-17.977C113.858,198.493,114.857,197.495,115.855,197.495z"/>
	<path id="key-AltGr"    class="key modifier special" d="M355.555,197.495h23.97c0.999,0,1.998,0.998,1.998,2.996v17.977c0,1-0.999,2.997-1.998,2.997h-23.97c-0.999,0-1.998-1.997-1.998-2.997v-17.977C353.557,198.493,354.556,197.495,355.555,197.495z"/>


	<g id="key-tablogo-1">
		<path id="key-tablogo-1-triangle" class="tablogo" d="M69.695,128.001l3.456-1.998v3.996L69.695,128.001z"/>
		<path id="key-tablogo-1-line" class="tablogo" d="M69,126.001v4"/>
	</g>

	<g id="key-tablogo-2">
		<path id="key-tablogo-2-triangle" class="tablogo" d="M81.306,136.001l-3.457,1.998v-3.996L81.306,136.001z"/>
		<path id="key-tablogo-2-line" class="tablogo" d="M82,134.001v4"/>
	</g>

    <!-- Tiny triangles for enter/arrow keys/backspace -->
	<path class="triangle" d="M447.692,155.001l3.46-2v4L447.692,155.001z"/>
	<path class="triangle" d="M560,215.37l-2-3.46h4L560,215.37z"/>
	<path class="triangle" d="M522.692,210.001l3.46-2v4L522.692,210.001z"/>
	<path class="triangle" d="M597.308,210.001l-3.46,2v-4L597.308,210.001z"/>
	<path class="triangle" d="M560,177.693l2,3.46h-4L560,177.693z"/>
	<path class="triangle" d="M680,127.693l2,3.46h-4L680,127.693z"/>
	<path class="triangle" d="M680,192.309l-2-3.46h4L680,192.309z"/>
	<path class="triangle" d="M712.308,160.001l-3.46,2v-4L712.308,160.001z"/>
	<path class="triangle" d="M642.692,160.001l3.46-2v4L642.692,160.001z"/>
	<path class="triangle" d="M462.692,107.455l3.46-2v4L462.692,107.455z"/>

	<!--
		Text
	-->

	<!-- Letters -->
  	<g id="g201" transform="matrix(0.774557,0,0,0.77345,-210.373,-10.3173)"> 	<text class="text letter main" id="text-Q" transform="matrix(1.2929 0 0 1.2929 399.8394 192.7335)">Q</text></g>
  	<g id="g205" transform="matrix(0.774557,0,0,0.77345,-182.661,-10.3173)"> 	<text class="text letter main" id="text-W" transform="matrix(1.2929 0 0 1.2929 399.7946 192.7335)">W</text></g>
	<g id="g209" transform="matrix(0.774557,0,0,0.77345,-150,-10.3173)"> 		<text class="text letter main" id="text-E" transform="matrix(1.2929 0 0 1.2929 399.7418 192.7335)">E</text></g>
	<g id="g213" transform="matrix(0.774557,0,0,0.77345,-121.298,-10.3173)"> 	<text class="text letter main" id="text-R" transform="matrix(1.2929 0 0 1.2929 399.6953 192.7335)">R</text></g>
	<g id="g217" transform="matrix(0.774557,0,0,0.77345,-90.6165,-10.3173)"> 	<text class="text letter main" id="text-T" transform="matrix(1.2929 0 0 1.2929 399.6457 192.7335)">T</text></g>
	<g id="g221" transform="matrix(0.774557,0,0,0.77345,-60.9247,-10.3173)"> 	<text class="text letter main" id="text-Y" transform="matrix(1.2929 0 0 1.2929 399.5979 192.7335)">Y</text></g>
	<g id="g225" transform="matrix(0.774557,0,0,0.77345,-31.2329,-10.3173)"> 	<text class="text letter main" id="text-U" transform="matrix(1.2929 0 0 1.2929 399.5501 192.7335)">U</text></g>
	<g id="g229" transform="matrix(0.774557,0,0,0.77345,1.42831,-10.3173)"> 	<text class="text letter main" id="text-I" transform="matrix(1.2929 0 0 1.2929 399.497 192.7335)">I</text></g>
	<g id="g233" transform="matrix(0.774557,0,0,0.77345,27.1613,-10.3173)"> 	<text class="text letter main" id="text-O" transform="matrix(1.2929 0 0 1.2929 399.456 192.7335)">O</text></g>
	<g id="g237" transform="matrix(0.774557,0,0,0.77345,57.8426,-10.3173)"> 	<text class="text letter main" id="text-P" transform="matrix(1.2929 0 0 1.2929 399.4059 192.7335)">P</text></g>
	<g id="g241" transform="matrix(0.774557,0,0,0.77345,-202.456,15.3789)"> 	<text class="text letter main" id="text-A" transform="matrix(1.2929 0 0 1.2929 399.8262 192.692)">A</text></g>
	<g id="g245" transform="matrix(0.774557,0,0,0.77345,-171.774,15.3789)"> 	<text class="text letter main" id="text-S" transform="matrix(1.2929 0 0 1.2929 399.7772 192.692)">S</text></g>
	<g id="g249" transform="matrix(0.774557,0,0,0.77345,-143.072,15.3789)"> 	<text class="text letter main" id="text-D" transform="matrix(1.2929 0 0 1.2929 399.7307 192.6921)">D</text></g>
	<g id="g253" transform="matrix(0.774557,0,0,0.77345,-112.39,15.3789)"> 		<text class="text letter main" id="text-F" transform="matrix(1.2929 0 0 1.2929 399.681 192.6922)">F</text></g>
	<g id="g257" transform="matrix(0.774557,0,0,0.77345,-83.6883,15.3789)"> 	<text class="text letter main" id="text-G" transform="matrix(1.2929 0 0 1.2929 399.635 192.6922)">G</text></g>
	<g id="g261" transform="matrix(0.774557,0,0,0.77345,-53.9965,15.3789)"> 	<text class="text letter main" id="text-H" transform="matrix(1.2929 0 0 1.2929 399.5865 192.6923)">H</text></g>
	<g id="g265" transform="matrix(0.774557,0,0,0.77345,-22.3252,15.3789)"> 	<text class="text letter main" id="text-J" transform="matrix(1.2929 0 0 1.2929 399.5356 192.6924)">J</text></g>
	<g id="g269" transform="matrix(0.774557,0,0,0.77345,5.38717,15.3789)"> 		<text class="text letter main" id="text-K" transform="matrix(1.2929 0 0 1.2929 399.4909 192.6924)">K</text></g>
	<g id="g273" transform="matrix(0.774557,0,0,0.77345,36.0689,15.3789)"> 		<text class="text letter main" id="text-L" transform="matrix(1.2929 0 0 1.2929 399.4416 192.6925)">L</text></g>
	<g id="g277" transform="matrix(0.774557,0,0,0.77345,-190.579,40.0868)"> 	<text class="text letter main" id="text-Z" transform="matrix(1.2929 0 0 1.2929 399.8072 192.6523)">Z</text></g>
	<g id="g281" transform="matrix(0.774557,0,0,0.77345,-160.887,40.0868)"> 	<text class="text letter main" id="text-X" transform="matrix(1.2929 0 0 1.2929 399.7592 192.6523)">X</text></g>
	<g id="g285" transform="matrix(0.774557,0,0,0.77345,-131.195,40.0868)"> 	<text class="text letter main" id="text-C" transform="matrix(1.2929 0 0 1.2929 399.7111 192.6523)">C</text></g>
	<g id="g289" transform="matrix(0.774557,0,0,0.77345,-101.504,40.0868)"> 	<text class="text letter main" id="text-V" transform="matrix(1.2929 0 0 1.2929 399.6637 192.6523)">V</text></g>
	<g id="g293" transform="matrix(0.774557,0,0,0.77345,-71.8117,40.0868)"> 	<text class="text letter main" id="text-B" transform="matrix(1.2929 0 0 1.2929 399.6153 192.6523)">B</text></g>
	<g id="g297" transform="matrix(0.774557,0,0,0.77345,-42.1195,40.0868)"> 	<text class="text letter main" id="text-N" transform="matrix(1.2929 0 0 1.2929 399.5676 192.6523)">N</text></g>
	<g id="g301" transform="matrix(0.774557,0,0,0.77345,-13.4176,40.0868)"> 	<text class="text letter main" id="text-M" transform="matrix(1.2929 0 0 1.2929 399.5213 192.6523)">M</text></g>

	<!-- Number pad -->
	<g id="g321" transform="matrix(0.774557,0,0,0.77345,331.007,-42.9317)"> 	<text class="text smaller numlock keypad" id="text-keypad-NumLock1" transform="matrix(1.2929 0 0 1.2929 398.9655 192.7867)">Num</text></g>
	<g id="g325" transform="matrix(0.774557,0,0,0.77345,331.007,-35.0252)"> 	<text class="text smaller numlock keypad" id="text-keypad-NumLock2" transform="matrix(1.2929 0 0 1.2929 398.9655 192.7737)">Lock</text></g>
	<g id="g341" transform="matrix(0.774557,0,0,0.77345,357.73,-44.9081)"> 		<text class="text small symbol keypad"    id="text-keypad-slash" transform="matrix(1.2929 0 0 1.2929 398.9222 192.7898)">/</text></g>
	<g id="g357" transform="matrix(0.774557,0,0,0.77345,386.432,-44.9081)"> 	<text class="text small symbol keypad"    id="text-keypad-asterisk" transform="matrix(1.2929 0 0 1.2929 398.8757 194.7874)">*</text></g>
	<g id="g379" transform="matrix(0.774557,0,0,0.77345,416.124,-45.8965)"> 	<text class="text small symbol keypad"    id="text-keypad-minus" transform="matrix(1.2929 0 0 1.2929 398.8283 192.7919)">-</text></g>
	<g id="g383" transform="matrix(0.774557,0,0,0.77345,417.114,-0.434028)"> 	<text class="text small symbol keypad"    id="text-keypad-plus" transform="matrix(1.2929 0 0 1.2929 398.8261 194.7161)">+</text></g>

	<g id="g329" transform="matrix(0.774557,0,0,0.77345,327.049,-19.2122)"> 	<text class="text small number keypad" id="text-keypad-7" transform="matrix(1.2929 0 0 1.2929 398.9718 192.7485)">7</text></g>
	<g id="g333" transform="matrix(0.774557,0,0,0.77345,327.049,5.49565)"> 		<text class="text small number keypad" id="text-keypad-4" transform="matrix(1.2929 0 0 1.2929 398.9718 192.7084)">4</text></g>
	<g id="g337" transform="matrix(0.774557,0,0,0.77345,327.049,31.1919)"> 		<text class="text small number keypad" id="text-keypad-1" transform="matrix(1.2929 0 0 1.2929 398.9718 192.6667)">1</text></g>
text-
	<g id="g345" transform="matrix(0.774557,0,0,0.77345,357.73,-19.2122)"> 		<text class="text small number keypad" id="text-keypad-8" transform="matrix(1.2929 0 0 1.2929 398.9222 192.7487)">8</text></g>
	<g id="g349" transform="matrix(0.774557,0,0,0.77345,357.73,5.49565)"> 		<text class="text small number keypad" id="text-keypad-5" transform="matrix(1.2929 0 0 1.2929 398.9222 192.7085)">5</text></g>
	<g id="g353" transform="matrix(0.774557,0,0,0.77345,357.73,31.1919)"> 		<text class="text small number keypad" id="text-keypad-2" transform="matrix(1.2929 0 0 1.2929 398.9222 192.6669)">2</text></g>

	<g id="g361" transform="matrix(0.774557,0,0,0.77345,386.432,-19.2122)"> 	<text class="text small number keypad" id="text-keypad-9" transform="matrix(1.2929 0 0 1.2929 398.8757 192.7487)">9</text></g>
	<g id="g365" transform="matrix(0.774557,0,0,0.77345,386.432,5.49565)"> 		<text class="text small number keypad" id="text-keypad-6" transform="matrix(1.2929 0 0 1.2929 398.8757 192.7086)">6</text></g>
	<g id="g369" transform="matrix(0.774557,0,0,0.77345,386.432,31.1919)"> 		<text class="text small number keypad" id="text-keypad-3" transform="matrix(1.2929 0 0 1.2929 398.8757 192.6669)">3</text></g>
	<g id="g375" transform="matrix(0.774557,0,0,0.77345,327.049,56.8878)"> 		<text class="text small number keypad" id="text-keypad-0" transform="matrix(1.2929 0 0 1.2929 398.9718 192.6251)">0</text></g>

	<!-- Fn-row keys -->
	<g id="g387" transform="matrix(0.774557,0,0,0.77345,239.952,-83.4525)"> 	<text class="text smaller f-key" id="text-ScrollLock1" transform="matrix(1.2929 0 0 1.2929 399.1122 192.8523)">Scroll</text></g>
	<g id="g391" transform="matrix(0.774557,0,0,0.77345,239.952,-75.546)"> 		<text class="text smaller f-key" id="text-ScrollLock2" transform="matrix(1.2929 0 0 1.2929 399.1122 192.8394)">Lock</text></g>
	<g id="g395" transform="matrix(0.774557,0,0,0.77345,209.271,-88.3941)"> 	<text class="text smaller f-key" id="text-PrintScreen1" transform="matrix(1.2929 0 0 1.2929 399.1618 192.8602)">Print</text></g>
	<g id="g399" transform="matrix(0.774557,0,0,0.77345,209.271,-80.4877)"> 	<text class="text smaller f-key" id="text-PrintScreen2" transform="matrix(1.2929 0 0 1.2929 399.1618 192.8475)">Scrn</text></g>
	<g id="g403" transform="matrix(0.774557,0,0,0.77345,209.271,-72.5812)"> 	<text class="text smaller f-key" id="text-PrintScreen3" transform="matrix(1.2929 0 0 1.2929 399.1618 192.8351)">SysRq</text></g>
	<g id="g409" transform="matrix(0.774557,0,0,0.77345,268.654,-87.4057)"> 	<text class="text smaller f-key" id="text-Pause1" transform="matrix(1.2929 0 0 1.2929 399.067 192.8589)">Pause</text></g>
	<g id="g413" transform="matrix(0.774557,0,0,0.77345,269.644,-73.5692)"> 	<text class="text smaller f-key" id="text-Pause2" transform="matrix(1.2929 0 0 1.2929 399.0648 192.8367)">Break</text></g>

	<g id="g419" transform="matrix(0.774557,0,0,0.77345,-198.497,-78.5109)"> 	<text class="text small   f-key" id="text-F1" transform="matrix(1.2929 0 0 1.2929 399.8198 192.8447)">F1</text></g>
	<g id="g423" transform="matrix(0.774557,0,0,0.77345,-169.794,-78.5109)"> 	<text class="text small   f-key" id="text-F2" transform="matrix(1.2929 0 0 1.2929 399.7733 192.8448)">F2</text></g>
	<g id="g427" transform="matrix(0.774557,0,0,0.77345,-140.103,-78.5109)"> 	<text class="text small   f-key" id="text-F3" transform="matrix(1.2929 0 0 1.2929 399.7259 192.8448)">F3</text></g>
	<g id="g431" transform="matrix(0.774557,0,0,0.77345,-110.411,-78.5109)"> 	<text class="text small   f-key" id="text-F4" transform="matrix(1.2929 0 0 1.2929 399.6779 192.8448)">F4</text></g>
	<g id="g435" transform="matrix(0.774557,0,0,0.77345,-65.8731,-78.5109)"> 	<text class="text small   f-key" id="text-F5" transform="matrix(1.2929 0 0 1.2929 399.6057 192.8448)">F5</text></g>
	<g id="g439" transform="matrix(0.774557,0,0,0.77345,-36.1812,-78.5109)"> 	<text class="text small   f-key" id="text-F6" transform="matrix(1.2929 0 0 1.2929 399.5577 192.8448)">F6</text></g>
	<g id="g443" transform="matrix(0.774557,0,0,0.77345,-6.48941,-78.5109)"> 	<text class="text small   f-key" id="text-F7" transform="matrix(1.2929 0 0 1.2929 399.5093 192.8448)">F7</text></g>
	<g id="g447" transform="matrix(0.774557,0,0,0.77345,23.2024,-78.5109)"> 	<text class="text small   f-key" id="text-F8" transform="matrix(1.2929 0 0 1.2929 399.4622 192.8448)">F8</text></g>
	<g id="g451" transform="matrix(0.774557,0,0,0.77345,66.7503,-78.5109)"> 	<text class="text small   f-key" id="text-F9" transform="matrix(1.2929 0 0 1.2929 399.3915 192.8448)">F9</text></g>
	<g id="g455" transform="matrix(0.774557,0,0,0.77345,93.4728,-78.5109)"> 	<text class="text small   f-key" id="text-F10" transform="matrix(1.2929 0 0 1.2929 399.3488 192.8448)">F10</text></g>
	<g id="g459" transform="matrix(0.774557,0,0,0.77345,124.154,-78.5109)"> 	<text class="text small   f-key" id="text-F11" transform="matrix(1.2929 0 0 1.2929 399.299 192.8448)">F11</text></g>
	<g id="g463" transform="matrix(0.774557,0,0,0.77345,152.856,-78.5109)"> 	<text class="text small   f-key" id="text-F12" transform="matrix(1.2929 0 0 1.2929 399.2525 192.8448)">F12</text></g>

	<!-- Center blob things -->
	<g id="g467" transform="matrix(0.774557,0,0,0.77345,-258.87,-79.4993)"> 	<text class="text smaller f-key" id="text-Esc" transform="matrix(1.2929 0 0 1.2929 399.9174 192.8462)">Esc</text></g>
	<g id="g471" transform="matrix(0.774557,0,0,0.77345,240.942,-38.9784)"> 	<text class="text smaller f-key" id="text-Home" transform="matrix(1.2929 0 0 1.2929 399.1112 192.7807)">Home</text></g>
	<g id="g475" transform="matrix(0.774557,0,0,0.77345,244.901,-13.2822)"> 	<text class="text smaller f-key" id="text-End" transform="matrix(1.2929 0 0 1.2929 399.1036 192.7392)">End</text></g>
	<g id="g479" transform="matrix(0.774557,0,0,0.77345,271.624,-17.2354)"> 	<text class="text smaller f-key" id="text-PageDown1" transform="matrix(1.2929 0 0 1.2929 399.0616 192.7457)">Page</text></g>
	<g id="g483" transform="matrix(0.774557,0,0,0.77345,271.624,-9.32892)"> 	<text class="text smaller f-key" id="text-PageDown2" transform="matrix(1.2929 0 0 1.2929 399.0616 192.7334)">Down</text></g>
	<g id="g487" transform="matrix(0.774557,0,0,0.77345,272.613,-43.9201)"> 	<text class="text smaller f-key" id="text-PageUp1" transform="matrix(1.2929 0 0 1.2929 399.0594 192.7888)">Page</text></g>
	<g id="g491" transform="matrix(0.774557,0,0,0.77345,272.613,-36.0132)"> 	<text class="text smaller f-key" id="text-PageUp2" transform="matrix(1.2929 0 0 1.2929 399.0594 192.776)">Up</text></g>
	<g id="g495" transform="matrix(0.774557,0,0,0.77345,212.24,-38.9784)"> 		<text class="text smaller f-key" id="text-Insert" transform="matrix(1.2929 0 0 1.2929 399.1577 192.7809)">Insert</text></g>
	<g id="g499" transform="matrix(0.774557,0,0,0.77345,211.25,-13.2822)"> 		<text class="text smaller f-key" id="text-Delete" transform="matrix(1.2929 0 0 1.2929 399.1586 192.7394)">Delete</text></g>

	<!-- Number row -->
	<g id="g637" transform="matrix(0.774557,0,0,0.77345,-263.819,-44.9081)"> 	<text class="text small numrow"        id="text-tilde" transform="matrix(1.2929 0 0 1.2929 399.9255 192.7906)">~</text></g>
	<g id="g511" transform="matrix(0.774557,0,0,0.77345,-204.435,-31.0719)"> 	<text class="text small number numrow" id="text-2" transform="matrix(1.2929 0 0 1.2929 399.8293 192.7687)">2</text></g>
    <g id="g507" transform="matrix(0.774557,0,0,0.77345,-233.137,-31.0719)">    <text class="text small number numrow" id="text-1" transform="matrix(1.2929 0 0 1.2929 399.8758 192.7687)">1</text></g>
	<g id="g515" transform="matrix(0.774557,0,0,0.77345,-174.743,-31.0719)"> 	<text class="text small number numrow" id="text-3" transform="matrix(1.2929 0 0 1.2929 399.782 192.7687)">3</text></g>
	<g id="g519" transform="matrix(0.774557,0,0,0.77345,-145.051,-31.0719)"> 	<text class="text small number numrow" id="text-4" transform="matrix(1.2929 0 0 1.2929 399.7339 192.7687)">4</text></g>
	<g id="g523" transform="matrix(0.774557,0,0,0.77345,-114.37,-31.0719)"> 	<text class="text small number numrow" id="text-5" transform="matrix(1.2929 0 0 1.2929 399.6843 192.7687)">5</text></g>
	<g id="g527" transform="matrix(0.774557,0,0,0.77345,-84.6778,-31.0719)"> 	<text class="text small number numrow" id="text-6" transform="matrix(1.2929 0 0 1.2929 399.6366 192.7687)">6</text></g>
	<g id="g531" transform="matrix(0.774557,0,0,0.77345,-54.986,-31.0719)"> 	<text class="text small number numrow" id="text-7" transform="matrix(1.2929 0 0 1.2929 399.5882 192.7687)">7</text></g>
	<g id="g535" transform="matrix(0.774557,0,0,0.77345,-26.2841,-31.0719)"> 	<text class="text small number numrow" id="text-8" transform="matrix(1.2929 0 0 1.2929 399.5419 192.7687)">8</text></g>
	<g id="g539" transform="matrix(0.774557,0,0,0.77345,3.40774,-31.0719)"> 	<text class="text small number numrow" id="text-9" transform="matrix(1.2929 0 0 1.2929 399.4934 192.7687)">9</text></g>
	<g id="g543" transform="matrix(0.774557,0,0,0.77345,34.0895,-31.0719)"> 	<text class="text small number numrow" id="text-0" transform="matrix(1.2929 0 0 1.2929 399.4453 192.7687)">0</text></g>
	<g id="g653" transform="matrix(0.774557,0,0,0.77345,62.7914,-31.0719)"> 	<text class="text small numrow"        id="text-minus" transform="matrix(1.2929 0 0 1.2929 399.399 192.7689)">-</text></g>
	<g id="g661" transform="matrix(0.774557,0,0,0.77345,92.4829,-31.0719)"> 	<text class="text small numrow"        id="text-equals" transform="matrix(1.2929 0 0 1.2929 399.351 192.7689)">=</text></g>
	<g id="g669" transform="matrix(0.774557,0,0,0.77345,123.165,-31.0719)"> 	<text class="text small numrow"        id="text-backslash" transform="matrix(1.2929 0 0 1.2929 399.3013 192.7689)">\</text></g>

	<g id="g581" transform="matrix(0.774557,0,0,0.77345,3.40774,-45.8965)"> 	<text class="text smaller numrow secondary" id="text-lparen" transform="matrix(1.2929 0 0 1.2929 399.4934 194.79)">(</text></g>
	<g id="g585" transform="matrix(0.774557,0,0,0.77345,34.0895,-45.8965)"> 	<text class="text smaller numrow secondary" id="text-rparen" transform="matrix(1.2929 0 0 1.2929 399.4453 194.79)">)</text></g>
	<g id="g589" transform="matrix(0.774557,0,0,0.77345,-25.2942,-45.8965)"> 	<text class="text smaller numrow secondary" id="text-asterisk" transform="matrix(1.2929 0 0 1.2929 399.5404 194.79)">*</text></g>
	<g id="g593" transform="matrix(0.774557,0,0,0.77345,-55.9759,-44.9081)"> 	<text class="text smaller numrow secondary" id="text-ampersand" transform="matrix(1.2929 0 0 1.2929 399.5903 192.7906)">&amp;</text></g>
	<g id="g597" transform="matrix(0.774557,0,0,0.77345,-84.6778,-44.9081)"> 	<text class="text smaller numrow secondary" id="text-caret" transform="matrix(1.2929 0 0 1.2929 399.6366 192.7906)">^</text></g>
	<g id="g601" transform="matrix(0.774557,0,0,0.77345,-115.36,-44.9081)"> 	<text class="text smaller numrow secondary" id="text-percent" transform="matrix(1.2929 0 0 1.2929 399.6859 192.7906)">%</text></g>
	<g id="g605" transform="matrix(0.774557,0,0,0.77345,-145.051,-44.9081)"> 	<text class="text smaller numrow secondary" id="text-dollar" transform="matrix(1.2929 0 0 1.2929 399.7339 192.7906)">$</text></g>
	<g id="g609" transform="matrix(0.774557,0,0,0.77345,-174.743,-44.9081)"> 	<text class="text smaller numrow secondary" id="text-hash" transform="matrix(1.2929 0 0 1.2929 399.782 192.7906)">#</text></g>
	<g id="g613" transform="matrix(0.774557,0,0,0.77345,-205.425,-44.9081)"> 	<text class="text smaller numrow secondary" id="text-at" transform="matrix(1.2929 0 0 1.2929 399.831 192.7906)">@</text></g>
	<g id="g617" transform="matrix(0.774557,0,0,0.77345,-233.137,-44.9081)"> 	<text class="text smaller numrow secondary" id="text-bang" transform="matrix(1.2929 0 0 1.2929 399.8758 192.7906)">!</text></g>
	<g id="g633" transform="matrix(0.774557,0,0,0.77345,-262.829,-30.0835)"> 	<text class="text smaller numrow secondary" id="text-backtick" transform="matrix(1.2929 0 0 1.2929 399.9239 192.7667)">`</text></g>
	<g id="g657" transform="matrix(0.774557,0,0,0.77345,62.7914,-45.8965)"> 	<text class="text smaller numrow secondary" id="text-underscore" transform="matrix(1.2929 0 0 1.2929 399.399 192.7927)">_</text></g>
	<g id="g665" transform="matrix(0.774557,0,0,0.77345,92.4829,-45.8965)"> 	<text class="text smaller numrow secondary" id="text-plus" transform="matrix(1.2929 0 0 1.2929 399.351 192.7927)">+</text></g>
	<g id="g673" transform="matrix(0.774557,0,0,0.77345,123.165,-45.8965)"> 	<text class="text smaller numrow secondary" id="text-pipe" transform="matrix(1.2929 0 0 1.2929 399.3013 194.7902)">|</text></g>

	<!-- Ctrl, Alt, Shift, Enter -->
	<g id="g569" transform="matrix(0.774557,0,0,0.77345,150.877,63.8059)"> 		<text class="text smaller"       id="text-Rctrl" transform="matrix(1.2929 0 0 1.2929 399.2557 192.6155)">Ctrl</text></g>
	<g id="g573" transform="matrix(0.774557,0,0,0.77345,-252.932,63.8059)"> 	<text class="text smaller"       id="text-Ctrl" transform="matrix(1.2929 0 0 1.2929 399.9081 192.6155)">Ctrl</text></g>
	<g id="g577" transform="matrix(0.774557,0,0,0.77345,-185.63,62.8175)"> 		<text class="text smaller"       id="text-Alt" transform="matrix(1.2929 0 0 1.2929 399.7993 192.6169)">Alt</text></g>
	<g id="g621" transform="matrix(0.774557,0,0,0.77345,-242.045,38.11)"> 		<text class="text smaller"       id="text-Shift" transform="matrix(1.2929 0 0 1.2929 399.8901 192.6566)">Shift</text></g>
	<g id="g627" transform="matrix(0.774557,0,0,0.77345,130.092,38.11)"> 		<text class="text smaller"       id="text-Rshift" transform="matrix(1.2929 0 0 1.2929 399.2896 192.6566)">Shift</text></g>
	<g id="g503" transform="matrix(0.774557,0,0,0.77345,419.093,49.9697)"> 		<text class="text smaller f-key" id="text-Enter" transform="matrix(1.2929 0 0 1.2929 398.823 192.6372)">Enter</text></g>

	<g id="g641" transform="matrix(0.774557,0,0,0.77345,-262.829,-18.2238)"> 	<text class="text smaller tab"      id="text-Tab" transform="matrix(1.2929 0 0 1.2929 399.9239 192.748)">Tab</text></g>
	<g id="g645" transform="matrix(0.774557,0,0,0.77345,-247.983,8.46086)"> 	<text class="text smaller capslock" id="text-CapsLock1" transform="matrix(1.2929 0 0 1.2929 399.9002 192.7044)">Caps</text></g>
	<g id="g649" transform="matrix(0.774557,0,0,0.77345,-247.983,16.3673)"> 	<text class="text smaller capslock" id="text-CapsLock2" transform="matrix(1.2929 0 0 1.2929 399.9002 192.6922)">Lock</text></g>


    <!-- Right of the letter keys -->
	<g id="g677" transform="matrix(0.774557,0,0,0.77345,82.5861,-6.36408)"> 	<text class="text small" id="text-lbrack" transform="matrix(1.2929 0 0 1.2929 399.3666 192.7287)">[</text></g>
	<g id="g681" transform="matrix(0.774557,0,0,0.77345,81.5962,-19.2122)"> 	<text class="text smaller secondary" id="text-lbrace" transform="matrix(1.2929 0 0 1.2929 399.3687 192.7495)">{</text></g>

	<g id="g685" transform="matrix(0.774557,0,0,0.77345,111.288,-6.36408)"> 	<text class="text small" id="text-rbrack" transform="matrix(1.2929 0 0 1.2929 399.3203 192.7287)">]</text></g>
	<g id="g689" transform="matrix(0.774557,0,0,0.77345,111.288,-19.2122)"> 	<text class="text smaller secondary" id="text-rbrace" transform="matrix(1.2929 0 0 1.2929 399.3203 192.7495)">}</text></g>

	<g id="g693" transform="matrix(0.774557,0,0,0.77345,59.8224,18.3438)"> 		<text class="text small" id="text-semicolon" transform="matrix(1.2929 0 0 1.2929 399.4032 192.6885)">;</text></g>
	<g id="g697" transform="matrix(0.774557,0,0,0.77345,59.8224,5.49565)"> 		<text class="text smaller secondary" id="text-colon" transform="matrix(1.2929 0 0 1.2929 399.4032 192.7094)">:</text></g>

	<g id="g701" transform="matrix(0.774557,0,0,0.77345,89.5139,19.3322)"> 		<text class="text small" id="text-apos" transform="matrix(1.2929 0 0 1.2929 399.3551 192.6871)">&apos;</text></g>
	<g id="g705" transform="matrix(0.774557,0,0,0.77345,88.524,6.48405)"> 		<text class="text smaller secondary" id="text-quot" transform="matrix(1.2929 0 0 1.2929 399.356 192.7079)">&quot;</text></g>

	<g id="g709" transform="matrix(0.774557,0,0,0.77345,70.7091,45.0281)"> 		<text class="text small" id="text-slash" transform="matrix(1.2929 0 0 1.2929 399.3855 192.6465)">/</text></g>
	<g id="g713" transform="matrix(0.774557,0,0,0.77345,70.7091,32.1803)"> 		<text class="text smaller secondary" id="text-question" transform="matrix(1.2929 0 0 1.2929 399.3855 192.6663)">?</text></g>

	<g id="g717" transform="matrix(0.774557,0,0,0.77345,42.0072,45.0281)"> 		<text class="text small" id="text-dot" transform="matrix(1.2929 0 0 1.2929 399.4319 192.6465)">.</text></g>
	<g id="g721" transform="matrix(0.774557,0,0,0.77345,41.0173,32.1803)"> 		<text class="text smaller secondary" id="text-gt" transform="matrix(1.2929 0 0 1.2929 399.4327 192.6663)">&gt;</text></g>

	<g id="g725" transform="matrix(0.774557,0,0,0.77345,11.3255,45.0281)"> 		<text class="text small" id="text-comma" transform="matrix(1.2929 0 0 1.2929 399.4811 192.6465)">,</text></g>
	<g id="g729" transform="matrix(0.774557,0,0,0.77345,10.3359,32.1803)"> 		<text class="text smaller secondary" id="text-lt" transform="matrix(1.2929 0 0 1.2929 399.4828 192.6663)">&lt;</text></g>

	<!-- Numpad secondaries -->
	<g id="g749" transform="matrix(0.774557,0,0,0.77345,327.049,43.0513)"> 		<text class="text smaller keypad secondary" id="text-keypad-End" transform="matrix(1.2929 0 0 1.2929 398.9719 192.6487)">End</text></g>
	<g id="g753" transform="matrix(0.774557,0,0,0.77345,327.049,-6.36408)"> 	<text class="text smaller keypad secondary" id="text-keypad-Home" transform="matrix(1.2929 0 0 1.2929 398.9719 192.7287)">Home</text></g>
	<g id="g757" transform="matrix(0.774557,0,0,0.77345,386.432,-6.36408)"> 	<text class="text smaller keypad secondary" id="text-keypad-PgUp" transform="matrix(1.2929 0 0 1.2929 398.8759 192.7287)">PgUp</text></g>
	<g id="g761" transform="matrix(0.774557,0,0,0.77345,387.422,43.0513)"> 		<text class="text smaller keypad secondary" id="text-keypad-PgDn" transform="matrix(1.2929 0 0 1.2929 398.8749 192.6487)">PgDn</text></g>
	<g id="g765" transform="matrix(0.774557,0,0,0.77345,386.432,68.7475)"> 		<text class="text smaller keypad secondary" id="text-keypad-Del" transform="matrix(1.2929 0 0 1.2929 398.8759 192.6078)">Del</text></g>
	<g id="g769" transform="matrix(0.774557,0,0,0.77345,387.422,55.8994)"> 		<text class="text smaller keypad secondary" id="text-keypad-dot" transform="matrix(1.2929 0 0 1.2929 398.8749 192.6273)">.</text></g>
	<g id="g773" transform="matrix(0.774557,0,0,0.77345,328.038,68.7475)"> 		<text class="text smaller keypad secondary" id="text-keypad-Ins" transform="matrix(1.2929 0 0 1.2929 398.9698 192.6078)">Ins</text></g>

	<!-- Caps lock / Num lock / scroll lock lights -->
	<g id="g833" transform="matrix(0.774557,0,0,0.77345,340.905,-80.4877)"> 	<text class="text smaller lock-lights" id="text-lights-NumLock1" transform="matrix(1.2929 0 0 1.2929 398.9498 192.8481)">Num</text></g>
	<g id="g837" transform="matrix(0.774557,0,0,0.77345,340.905,-73.5692)"> 	<text class="text smaller lock-lights" id="text-lights-NumLock2" transform="matrix(1.2929 0 0 1.2929 398.9498 192.8374)">Lock</text></g>
	<g id="g845" transform="matrix(0.774557,0,0,0.77345,382.473,-80.4877)">  	<text class="text smaller lock-lights" id="text-lights-CapsLock1" transform="matrix(1.2929 0 0 1.2929 398.8822 192.8481)">Caps</text></g>
	<g id="g849" transform="matrix(0.774557,0,0,0.77345,382.473,-73.5692)"> 	<text class="text smaller lock-lights" id="text-lights-CapsLock2" transform="matrix(1.2929 0 0 1.2929 398.8822 192.8374)">Lock</text></g>
	<g id="g857" transform="matrix(0.774557,0,0,0.77345,423.052,-80.4877)"> 	<text class="text smaller lock-lights" id="text-lights-ScrollLock1" transform="matrix(1.2929 0 0 1.2929 398.8168 192.8481)">Scroll</text></g>
	<g id="g861" transform="matrix(0.774557,0,0,0.77345,423.052,-73.5692)"> 	<text class="text smaller lock-lights" id="text-lights-ScrollLock2" transform="matrix(1.2929 0 0 1.2929 398.8168 192.8374)">Lock</text></g>

    <!-- AltGr -->
    <g id="g867" transform="matrix(0.774557,0,0,0.77345,49.697,62.8175)"> 		<text class="text smaller" id="text-AltGr" transform="matrix(1.2929 0 0 1.2929 399.4202 192.617)">Alt Gr</text></g>

</g>

<style type="text/css">
.key {
  fill: #AAAAAA;
  stroke: #000000;
  stroke-width: 0.2;
}

.key.used {
    fill: #000000;
}

.key.used:hover {
  opacity: 0.5;
  transition: opacity 0.1s ease;
}

.text {
  fill: #FFFFFF;

  font-family: 'ArialMT', sans-serif;
  font-size: 14px;
  pointer-events: none;
}

.text.smaller {
  font-size: 7px;
}

.text.small {
  font-size: 10px;
}

.tablogo, .triangle {
    fill: #FFFFFF;
    /* stroke: #FFFFFF;
    stroke-width: 1; */
}

</style>
</svg>
